<?xml version="1.0" encoding="UTF-8"?>
<svg xmlns="http://www.w3.org/2000/svg" width="1000" height="500" viewBox="0 0 9600 4800">
  <path fill="#f00" d="M0 0h9600v4800H0z"/>
  <path fill="#fff" d="M2400 0h4800v4800H2400z"/>
  <path fill="#f00" d="M4800 720l-42 160 42-20 42 20-42-160zm0 2880l-42 160 42-20 42 20-42-160zm-840-1440h1680L4800 840l-840 1320zm420 840h840l-420-660-420 660zm-420 0l420-660 420 660h-840zm420-840l420 660h-840l420-660zm0 0l-420 660h840l-420-660zm0-1320v1320l840-1320h-840zm0 3960v-1320l840 1320h-840z"/>
</svg> 